<svg id="Layer_2" data-name="Layer 2" xmlns="http://www.w3.org/2000/svg" viewBox="0 0 189 197"><defs><style>.cls-1{fill:#ffc400;}.cls-2{fill:#212121;}</style></defs><title>Artboard 10</title><rect class="cls-1" x="27.46" y="31.91" width="132.18" height="132.18" rx="5.95" ry="5.95" transform="translate(-41.9 94.86) rotate(-45)"/><rect class="cls-1" x="34.84" y="39.29" width="117.42" height="117.42" rx="5.29" ry="5.29" transform="translate(-41.9 94.86) rotate(-45)"/><path class="cls-2" d="M93.55,21.27a1.15,1.15,0,0,1,.83.34l75.56,75.56a1.18,1.18,0,0,1,0,1.66L94.39,174.39a1.18,1.18,0,0,1-1.66,0L17.17,98.83a1.18,1.18,0,0,1,0-1.66L92.72,21.61a1.15,1.15,0,0,1,.83-.34m0-4.11a5.27,5.27,0,0,0-3.74,1.55L14.26,94.26a5.29,5.29,0,0,0,0,7.47l75.56,75.56a5.29,5.29,0,0,0,7.47,0l75.56-75.56a5.29,5.29,0,0,0,0-7.47L97.29,18.71a5.27,5.27,0,0,0-3.74-1.55Z"/><path class="cls-2" d="M126.39,104H124a33.74,33.74,0,0,0-61.36,0H45.42v7.68h96.26V104Z"/></svg>