<svg id="Layer_2" data-name="Layer 2" xmlns="http://www.w3.org/2000/svg" viewBox="0 0 310 319"><defs><style>.cls-1{fill:#a7ffeb;}.cls-2{fill:none;stroke:#80cbc4;stroke-linecap:round;stroke-linejoin:round;stroke-width:5px;}.cls-3{opacity:0.22;}.cls-4{fill:#80cbc4;}</style></defs><title>Artboard 2</title><path class="cls-1" d="M290,294c-63,16-126,4-190-7a157.18,157.18,0,0,0-53,0c-9,2-17,5-26,7a333.54,333.54,0,0,1-3-126c4-22,7-41,11-63,4-27,3-54-8-78,63-16,126-4,190,7a157.18,157.18,0,0,0,53,0c9-2,17-5,25-7,17,62,3,125-7,189-4,27-3,54,8,78Z"/><path class="cls-2" d="M290,294c-63,16-126,4-190-7a157.18,157.18,0,0,0-53,0c-9,2-17,5-26,7a333.54,333.54,0,0,1-3-126c4-22,7-41,11-63,4-27,3-54-8-78,63-16,126-4,190,7a157.18,157.18,0,0,0,53,0c9-2,17-5,25-7,17,62,3,125-7,189-4,27-3,54,8,78Z"/><g class="cls-3"><path class="cls-4" d="M50.63,106.68c3.55-15.3,3.62-34.77,14.86-47,14.47-15.75,39.26,4.94,47,18.44,7.34,12.78,10.46,27.47,15.64,41.26,6.8,18.11,17.46,35.06,32.37,47.38,25.68,21.2,62.26,27.66,84.19,52.72,4.47,5.11,8.25,11,9.85,17.6s.8,14-3.16,19.48c-5.95,8.28-17.12,10.53-27.24,11.79a452.85,452.85,0,0,1-123.09-1.9c-12.36-1.87-25.28-4.52-34.72-12.7C55.71,244.5,51.49,230,48.9,216.15a275.43,275.43,0,0,1-3.56-73.62A252.66,252.66,0,0,1,50.63,106.68Z"/></g><line class="cls-2" x1="40.29" y1="238.95" x2="73.63" y2="205.61"/><line class="cls-2" x1="62.26" y1="260.5" x2="95.6" y2="227.16"/><line class="cls-2" x1="68.9" y1="232.57" x2="102.23" y2="199.23"/><line class="cls-2" x1="202.79" y1="100.45" x2="236.13" y2="67.11"/><line class="cls-2" x1="224.76" y1="120" x2="258.1" y2="86.66"/><line class="cls-2" x1="231.4" y1="94.07" x2="264.73" y2="60.73"/></svg>