<svg id="Layer_2" data-name="Layer 2" xmlns="http://www.w3.org/2000/svg" viewBox="0 0 114 111"><defs><style>.cls-1{fill:#b2ff59;}</style></defs><title>Artboard 5</title><path class="cls-1" d="M42.56,14.88c8.18,18.5,17.79,31.84,28.4,38a19,19,0,0,0,25.82-6.74,18.81,18.81,0,0,0-7-25.67C79,14.3,62.35,12.72,42.56,14.88"/><path class="cls-1" d="M27.79,26.92C18.46,39.55,13.16,51.16,13.16,60.77a14.63,14.63,0,1,0,29.26,0c0-9.61-5.59-21.37-14.63-33.85"/><path class="cls-1" d="M51.88,55.9c-1.72,15.63-.43,28.4,4.3,36.72A14.65,14.65,0,1,0,81.57,78C76.7,69.67,65.94,62.21,51.88,55.9"/></svg>