<svg id="Layer_2" data-name="Layer 2" xmlns="http://www.w3.org/2000/svg" viewBox="0 0 266 322"><defs><style>.cls-1{fill:#b2ebf2;stroke:#80deea;}.cls-1,.cls-4{stroke-linecap:round;stroke-linejoin:round;stroke-width:4.57px;}.cls-2{fill:#fff;opacity:0.38;}.cls-3{fill:#4dd0e1;stroke-miterlimit:10;}.cls-3,.cls-4{stroke:#4dd0e1;}.cls-4{fill:none;}</style></defs><title>Artboard 4</title><path class="cls-1" d="M44.45,31.31l-8-10.52a9.43,9.43,0,0,0-15,11.42l8,10.52a46.07,46.07,0,0,0-1.83,57.82L130.41,235.69l12.66,16.64,28.09,36.93,73-55.57-28.09-36.93-12.66-16.64L100.66,45A46.07,46.07,0,0,0,44.45,31.31Z"/><rect class="cls-2" x="139.22" y="19.57" width="32.01" height="258.82" rx="16.01" ry="16.01" transform="translate(-58.51 124.39) rotate(-37.26)"/><rect class="cls-3" x="154.5" y="255.38" width="109.11" height="15.55" rx="6.53" ry="6.53" transform="translate(-116.66 180.29) rotate(-37.26)"/><line class="cls-4" x1="133.67" y1="209.62" x2="76.16" y2="134.01"/><line class="cls-4" x1="67.89" y1="123.14" x2="57.94" y2="110.07"/></svg>