<svg id="Layer_2" data-name="Layer 2" xmlns="http://www.w3.org/2000/svg" viewBox="0 0 200 360"><defs><style>.cls-1,.cls-2{fill:#b2ebf2;stroke:#80deea;stroke-linecap:round;stroke-linejoin:round;}.cls-1{stroke-width:4.57px;}.cls-2{stroke-width:8px;}.cls-3{opacity:0.28;}.cls-4{fill:#4dd0e1;}</style></defs><title>Artboard 3</title><path class="cls-1" d="M172.52,45.64H162c-43.28,1.6-87.14-1.6-130.42,0,12.87,44.16,11.11,88.86,2.34,135.15-7,34.59-11.7,67-9.94,101.1.58,18.62,9.94,36.18,26.32,49a119.65,119.65,0,0,0,15.21,9.58c8.19,3.19,16.38,6.38,25.15,6.92,5.85,1.06,12.28.53,18.13.53a72,72,0,0,0,14.62-3.19c7-2.66,12.87-5.32,18.71-10.11,3.51-3.19,7.6-6.38,10.53-10.11l5.26-8a104.83,104.83,0,0,0,4.68-12.24,24.52,24.52,0,0,0,1.17-6.38c-.58-29.26,1.17-56.93,7.6-86.73,11.11-56.4,13.45-111.21,1.17-165.48Z"/><path class="cls-1" d="M172.52,45.64H162c-43.28,1.6-87.14-1.6-130.42,0,12.87,44.16,11.11,88.86,2.34,135.15-7,34.59-11.7,67-9.94,101.1.58,18.62,9.94,36.18,26.32,49a119.65,119.65,0,0,0,15.21,9.58c8.19,3.19,16.38,6.38,25.15,6.92,5.85,1.06,12.28.53,18.13.53a72,72,0,0,0,14.62-3.19c7-2.66,12.87-5.32,18.71-10.11,14.28-13,21.27-26.11,21.77-44.76.71-26.61,1.8-52.42,7.47-78.68C182.47,154.72,184.81,99.92,172.52,45.64Z"/><ellipse class="cls-2" cx="97.85" cy="317.43" rx="52.62" ry="28.89"/><ellipse class="cls-2" cx="102.07" cy="45.67" rx="68.7" ry="30.34"/><g class="cls-3"><path class="cls-4" d="M50.91,282.82c-8.16-22.77-4.17-47.19-.11-70.72l10.62-61.58c1.95-11.29,3.89-22.82,1.35-34-.73-3.2-1.82-6.42-1.42-9.66,1-8.49,12.86-14,22.79-12.17s17.36,9.2,20.78,17.24,3.52,16.76,3.58,25.3c.11,15.26.2,30.67-3.68,45.58-4.36,16.73-13.41,35.08-3.27,49.93,7.9,11.56,24.76,16.33,36,25.77,14.45,12.17,17.75,32.61,7.68,47.57-5.3,7.87-14.11,13.91-24.09,17.19-8.65,2.84-23.71,2.61-31.8-1.44C71.1,312.7,57.21,300.4,50.91,282.82Z"/><path class="cls-4" d="M52.36,282.42c-7-20.38-4.78-41.81-1.34-62.66s7.12-41.41,10.69-62.11c1.7-9.85,3.82-19.83,3.77-29.87A56.57,56.57,0,0,0,64,115.3c-1.24-5.38-2.18-10.31,2.24-14.46,7-6.54,18.16-6.19,25.95-1.5,8.22,5,12.56,13.62,14,22.88,1.51,9.86,1,20.33.77,30.27-.25,10.9-1.28,21.73-4.23,32.26-4.17,14.88-12.18,32.55-3.37,47.32,8.19,13.73,25.46,17.62,37.1,27.48,13.06,11.07,17.32,30.41,7.83,45.15-10.4,16.17-33.26,23-51.25,17-8.73-2.9-17.47-9.16-24.23-15.28a61,61,0,0,1-16.46-24c-.67-1.79-3.57-1-2.89.8C55.66,299.84,68.38,312,83.64,320.5a48.85,48.85,0,0,0,46.84.37c14.3-7.66,23.85-22.14,21.72-38.7-2.4-18.63-16.89-27.79-31.86-36.33-8.64-4.93-17.72-10.63-20.78-20.72-3.24-10.67.79-22.18,3.92-32.39,6.51-21.23,7.87-43.68,6.22-65.8-1.21-16.22-10.66-33.68-29-34.1-6.69-.15-14.32,2.42-18.42,8a12.92,12.92,0,0,0-2.41,9.27c.6,6,2.57,11.58,2.61,17.72.08,13.9-3.47,27.94-5.82,41.58l-7,40.41c-4.19,24.3-8.46,49.49-.22,73.44C50.09,285,53,284.26,52.36,282.42Z"/></g><path class="cls-4" d="M51.62,100.42c3.89,30.66,8,62.23,1.9,92.89C48,221,34.39,248.37,41.28,277.13c.9,3.75,6.69,2.16,5.79-1.6-7-29.3,8.71-57.79,13.24-86.23,4.7-29.55,1.05-59.44-2.68-88.88-.48-3.78-6.49-3.83-6,0Z"/><path class="cls-4" d="M46,294.25a39.29,39.29,0,0,0,22.76,27c3.36,1.43,6.29-3.52,2.9-5a34,34,0,0,1-20.12-23.54c-.87-3.59-6.41-2.07-5.54,1.53Z"/></svg>