<svg id="Layer_2" data-name="Layer 2" xmlns="http://www.w3.org/2000/svg" viewBox="0 0 154 195"><defs><style>.cls-1{fill:#b2ebf2;stroke:#80deea;}.cls-1,.cls-2,.cls-3,.cls-6{stroke-linecap:round;stroke-linejoin:round;}.cls-1,.cls-2{stroke-width:4.5px;}.cls-2{fill:#80deea;}.cls-2,.cls-3{stroke:#4dd0e1;}.cls-3{fill:none;}.cls-3,.cls-6{stroke-width:2.16px;}.cls-4{opacity:0.8;}.cls-5{fill:#ffd600;}.cls-6{fill:#4dd0e1;stroke:#26c6da;}.cls-7{fill:#fff;opacity:0.38;}</style></defs><title>Artboard 6</title><rect class="cls-1" x="13.89" y="35.41" width="120.22" height="138.59" rx="8.33" ry="8.33"/><rect class="cls-2" x="11.4" y="24" width="125.21" height="30.89"/><line class="cls-3" x1="19.9" y1="31.51" x2="19.9" y2="54.89"/><line class="cls-3" x1="28.25" y1="31.51" x2="28.25" y2="54.89"/><line class="cls-3" x1="36.6" y1="31.51" x2="36.6" y2="54.89"/><g class="cls-4"><path class="cls-5" d="M63.56,73.88c8.18,18.5,17.79,31.84,28.4,38a19,19,0,0,0,25.82-6.74,18.81,18.81,0,0,0-7-25.67C100,73.3,83.35,71.72,63.56,73.88"/><path class="cls-5" d="M48.79,85.92c-9.32,12.62-14.63,24.24-14.63,33.85a14.63,14.63,0,1,0,29.26,0c0-9.61-5.59-21.37-14.63-33.85"/><path class="cls-5" d="M72.88,114.9c-1.72,15.63-.43,28.4,4.3,36.72A14.65,14.65,0,1,0,102.57,137c-4.88-8.32-15.63-15.78-29.69-22.09"/></g><line class="cls-3" x1="44.95" y1="31.51" x2="44.95" y2="54.89"/><line class="cls-3" x1="53.3" y1="31.51" x2="53.3" y2="54.89"/><rect class="cls-6" x="92.81" y="31.51" width="25.05" height="80.71" rx="2.74" ry="2.74"/><rect class="cls-7" x="24.5" y="66.5" width="20" height="98" rx="10" ry="10"/></svg>